<?xml version="1.0" encoding="UTF-8"?>
<svg id="Ebene_1" data-name="Ebene 1" xmlns="http://www.w3.org/2000/svg" viewBox="0 0 240.57 104.6">
  <defs>
    <style>
      .cls-1 {
        fill: #8c084d;
      }

      .cls-2 {
        fill: #eb5e50;
      }
    </style>
  </defs>
  <path class="cls-2" d="M231.58,103.01c5,0,8.99-3.8,8.99-8.79s-4-8.79-8.99-8.79-8.99,3.8-8.99,8.79,4,8.79,8.99,8.79h0Z"/>
  <path class="cls-1" d="M44.99,101.81l-30.64-31.62,29.25-28.97h-8.91l-28.13,28.41V0L0,1.67v100.14h6.55v-30.78l29.39,30.78h9.05ZM90.53,39.97c-11.14,0-20.33,5.43-25.49,13.93V0l-6.68,1.67v69.5c0,18.52,13.79,31.89,31.75,31.89s32.03-13.79,32.03-31.62-13.93-31.48-31.62-31.48h0ZM90.11,96.94c-14.21,0-25.07-11.14-25.07-25.35s11.14-25.49,25.35-25.49,25.07,11.14,25.07,25.35-11.14,25.49-25.35,25.49h0ZM229.25,41.23h-7.24l-19.78,48.33-22.98-51.11-22.98,51.39-19.92-48.61h-7.1l26.88,63.37,23.12-51.53,23.12,51.53,26.88-63.37h0Z"/>
</svg>