<?xml version="1.0" encoding="UTF-8"?>
<svg id="Ebene_1" data-name="Ebene 1" xmlns="http://www.w3.org/2000/svg" viewBox="0 0 584.5 584.59">
  <defs>
    <style>
      .cls-1 {
        fill: #173557;
      }
    </style>
  </defs>
  <path class="cls-1" d="M479.27,219.33h-14.14l-152.31-34.15v-41.51c1.19-.32,2.1-1.36,2.1-2.66v-22.33c0-6.43-4.62-9.92-8.31-12.73-1.78-1.34-3.45-2.61-4.49-4.03-2.33-3.16-4.17-12.9-4.82-18.42V2.8c0-1.55-1.25-2.8-2.79-2.8s-2.78,1.25-2.78,2.8v80.64c-.63,5.5-2.48,15.3-4.83,18.48-1.04,1.41-2.71,2.69-4.49,4.04-3.71,2.8-8.31,6.3-8.31,12.73v22.33c0,1.29.9,2.33,2.09,2.65v41.51l-154.03,34.15h-12.41c-1.54,0-2.79,1.25-2.79,2.8s1.25,2.79,2.79,2.79h9.93v217.87c0,1.55,1.26,2.79,2.8,2.79s2.8-1.24,2.8-2.79v-163.58h65.34v163.58c0,1.55,1.25,2.79,2.79,2.79s2.8-1.24,2.8-2.79v-163.58h194.93v163.58c0,1.55,1.25,2.79,2.8,2.79s2.79-1.24,2.79-2.79v-163.58h65.33v163.58c0,1.55,1.26,2.79,2.81,2.79s2.79-1.24,2.79-2.79v-217.87h11.63c1.53,0,2.79-1.26,2.79-2.79s-1.25-2.8-2.79-2.8ZM281.77,143.81h25.47v40.82h-25.47v-40.82ZM439.61,219.33H148l131.29-29.11h30.44l129.88,29.11ZM125.26,224.92h65.34v48.7h-65.34v-48.7ZM196.19,224.92h194.93v48.7h-194.93v-48.7ZM396.71,224.92h65.33v48.7h-65.33v-48.7ZM294.5,98.17c.83,2.79,1.86,5.37,3.12,7.07,1.51,2.06,3.6,3.64,5.62,5.17,2.33,1.77,4.42,3.38,5.44,5.47h-28.33c1.02-2.09,3.1-3.7,5.44-5.47,1.91-1.45,4.08-3.1,5.61-5.17,1.25-1.7,2.28-4.28,3.11-7.07ZM309.32,138.22h-29.64v-16.74h29.64v16.74Z"/>
  <path class="cls-1" d="M235.06,295.44c-.36-.03-.72-.05-1.11-.05-5.84.02-11.33,2.32-15.47,6.47-4.12,4.16-6.39,9.67-6.37,15.51l.03,7.19c-.03.15-.05.32-.05.5v49.38c0,1.54,1.26,2.79,2.8,2.79h38.22c1.55,0,2.81-1.25,2.81-2.79v-48.85c.04-.22.07-.44.05-.61l-.04-7.73c-.04-11.75-9.23-21.32-20.87-21.8ZM217.7,317.35c-.01-4.36,1.67-8.46,4.74-11.54,3.07-3.1,7.16-4.81,11.52-4.83.19,0,.37.01.77.04,8.71.36,15.58,7.5,15.62,16.25l.04,7.21c-.04.18-.05.38-.05.57v46.59h-32.65v-46.09c.03-.16.05-.33.05-.5l-.02-7.7Z"/>
  <path class="cls-1" d="M253.15,384.41h-38.25c-1.54,0-2.79,1.25-2.79,2.8v55.58c0,1.55,1.25,2.79,2.79,2.79s2.79-1.24,2.79-2.79v-52.79h32.67v52.79c0,1.55,1.25,2.79,2.8,2.79s2.79-1.24,2.79-2.79v-55.58c0-1.54-1.25-2.8-2.79-2.8Z"/>
  <path class="cls-1" d="M271.73,374.44c0,1.54,1.25,2.79,2.79,2.79h38.23c1.55,0,2.8-1.25,2.8-2.79v-48.78c.06-.22.07-.45.07-.67,0-.18,0-.34-.04-.5l-.03-7.24c-.03-11.75-9.26-21.33-20.95-21.81-.34-.03-.66-.05-1.03-.05-5.85.02-11.34,2.32-15.47,6.47-4.12,4.16-6.39,9.67-6.37,15.51l.03,5.21c-.03.15-.04.31-.04.48v51.38ZM277.33,317.35c-.02-4.35,1.67-8.45,4.74-11.54,3.08-3.1,7.17-4.81,11.52-4.83.21,0,.41.01.74.04,8.74.37,15.61,7.5,15.64,16.24l.04,7.13c-.04.2-.05.39-.05.6v46.65h-32.65v-48.09c.03-.17.05-.34.05-.51l-.03-5.7Z"/>
  <path class="cls-1" d="M309.98,442.79c0,1.55,1.25,2.79,2.79,2.79s2.79-1.24,2.79-2.79v-55.58c0-1.54-1.25-2.8-2.79-2.8h-38.25c-1.54,0-2.79,1.25-2.79,2.8v55.58c0,1.55,1.25,2.79,2.79,2.79s2.79-1.24,2.79-2.79v-52.79h32.67v52.79Z"/>
  <path class="cls-1" d="M374.79,317.24c-.05-11.75-9.27-21.33-20.97-21.8-.33-.03-.65-.05-1.02-.05-5.84.02-11.35,2.32-15.48,6.47-4.12,4.17-6.39,9.68-6.36,15.51l.03,5.45c-.04.15-.05.32-.05.49v51.12c0,1.54,1.25,2.79,2.8,2.79h38.22c1.55,0,2.8-1.25,2.8-2.79v-48.79c.05-.22.07-.45.07-.66,0-.18-.02-.34-.04-.5l-.02-7.25ZM336.56,317.35c-.03-4.35,1.66-8.46,4.73-11.54,3.08-3.1,7.17-4.81,11.53-4.83.2,0,.4.01.74.04,8.73.36,15.6,7.5,15.63,16.24l.03,7.26c-.03.15-.04.31-.04.47v46.65h-32.64v-47.84c.03-.15.04-.32.04-.5v-5.95Z"/>
  <path class="cls-1" d="M371.99,384.41h-38.25c-1.55,0-2.81,1.25-2.81,2.8v55.58c0,1.55,1.25,2.79,2.81,2.79s2.79-1.24,2.79-2.79v-52.79h32.66v52.79c0,1.55,1.25,2.79,2.79,2.79s2.8-1.24,2.8-2.79v-55.58c0-1.54-1.26-2.8-2.8-2.8Z"/>
  <path class="cls-1" d="M518.22,451.12c-2.48,0-4.5,2.02-4.5,4.5s2.02,4.5,4.5,4.5,4.51-2.01,4.51-4.5-2.01-4.5-4.51-4.5Z"/>
  <path class="cls-1" d="M67.05,451.11c-2.49,0-4.51,2.02-4.51,4.5s2.02,4.51,4.51,4.51,4.51-2.02,4.51-4.51-2.03-4.5-4.51-4.5Z"/>
  <rect class="cls-1" x="205.41" y="12.82" width="9.57" height="28.64" transform="translate(1.33 63.12) rotate(-17.13)"/>
  <polygon class="cls-1" points="183.09 52.69 170.73 26.84 162.1 30.96 174.44 56.81 183.09 52.69"/>
  <rect class="cls-1" x="133.09" y="47.28" width="9.57" height="28.64" transform="translate(-10.96 87.12) rotate(-33.8)"/>
  <rect class="cls-1" x="101.72" y="71.67" width="9.57" height="28.64" transform="translate(-30.19 93.24) rotate(-41.95)"/>
  <rect class="cls-1" x="74.16" y="100.22" width="9.57" height="28.64" transform="translate(-59.56 101.6) rotate(-50.08)"/>
  <rect class="cls-1" x="50.88" y="132.47" width="9.57" height="28.64" transform="translate(-98.46 116.93) rotate(-58.27)"/>
  <rect class="cls-1" x="32.33" y="167.96" width="9.57" height="28.64" transform="translate(-144.87 143.79) rotate(-66.55)"/>
  <rect class="cls-1" x="18.98" y="206.21" width="9.57" height="28.64" transform="translate(-195.39 186.3) rotate(-74.97)"/>
  <rect class="cls-1" x="11.29" y="246.79" width="9.57" height="28.64" transform="translate(-245.19 247.66) rotate(-83.53)"/>
  <rect class="cls-1" x=".17" y="298.66" width="28.64" height="9.57" transform="translate(-11.38 .76) rotate(-2.15)"/>
  <rect class="cls-1" x="4.86" y="340.22" width="28.65" height="9.57" transform="translate(-64.14 9.66) rotate(-10.77)"/>
  <polygon class="cls-1" points="14.67 384.69 17.82 393.72 44.86 384.28 41.71 375.25 14.67 384.69"/>
  <polygon class="cls-1" points="109.17 520.69 116.72 526.56 134.31 503.96 126.75 498.08 109.17 520.69"/>
  <rect class="cls-1" x="140.52" y="529.68" width="28.64" height="9.56" transform="translate(-386.23 404.55) rotate(-60.34)"/>
  <rect class="cls-1" x="176.74" y="546.97" width="28.64" height="9.56" transform="translate(-392.39 528.79) rotate(-68.65)"/>
  <rect class="cls-1" x="215.62" y="558.95" width="28.64" height="9.57" transform="translate(-370.94 661.83) rotate(-77.08)"/>
  <polygon class="cls-1" points="265.17 583.87 274.72 584.59 276.86 556.03 267.33 555.31 265.17 583.87"/>
  <rect class="cls-1" x="308.68" y="555.63" width="9.57" height="28.64" transform="translate(-41.97 25.19) rotate(-4.31)"/>
  <rect class="cls-1" x="349.77" y="549.42" width="9.56" height="28.64" transform="translate(-116.95 93.43) rotate(-12.91)"/>
  <rect class="cls-1" x="388.65" y="537.44" width="9.56" height="28.64" transform="translate(-173.88 181.11) rotate(-21.35)"/>
  <rect class="cls-1" x="424.87" y="520.15" width="9.57" height="28.64" transform="translate(-208.29 282.91) rotate(-29.68)"/>
  <polygon class="cls-1" points="450.19 503.96 467.77 526.56 475.33 520.69 457.73 498.09 450.19 503.96"/>
  <rect class="cls-1" x="549.95" y="370.16" width="9.57" height="28.65" transform="translate(8.87 781.47) rotate(-70.75)"/>
  <rect class="cls-1" x="560.52" y="330.69" width="9.57" height="28.64" transform="translate(120.8 835.95) rotate(-79.24)"/>
  <rect class="cls-1" x="565.22" y="289.13" width="9.57" height="28.64" transform="translate(244.95 861.41) rotate(-87.8)"/>
  <rect class="cls-1" x="554.1" y="256.33" width="28.65" height="9.57" transform="translate(-25.75 65.54) rotate(-6.45)"/>
  <rect class="cls-1" x="546.41" y="215.76" width="28.63" height="9.57" transform="translate(-38.01 152.94) rotate(-15.03)"/>
  <rect class="cls-1" x="533.05" y="177.49" width="28.64" height="9.57" transform="translate(-27.34 232.78) rotate(-23.44)"/>
  <polygon class="cls-1" points="519.16 158.39 543.52 143.33 538.48 135.2 514.14 150.25 519.16 158.39"/>
  <rect class="cls-1" x="491.22" y="109.76" width="28.64" height="9.57" transform="translate(44.28 351.04) rotate(-39.91)"/>
  <rect class="cls-1" x="463.67" y="81.21" width="28.65" height="9.56" transform="translate(94.53 384.04) rotate(-48.05)"/>
  <rect class="cls-1" x="432.31" y="56.82" width="28.64" height="9.56" transform="translate(147.04 398.53) rotate(-56.21)"/>
  <rect class="cls-1" x="397.59" y="37.04" width="28.64" height="9.57" transform="translate(196.79 395.58) rotate(-64.49)"/>
  <rect class="cls-1" x="359.98" y="22.35" width="28.64" height="9.57" transform="translate(238.21 376.87) rotate(-72.88)"/>
</svg>